<svg width="29" height="24" viewBox="0 0 29 24" fill="none" xmlns="http://www.w3.org/2000/svg">
<path fill-rule="evenodd" clip-rule="evenodd" d="M7.95922 15.7503H23.0902C23.6579 15.7503 24.1245 16.2168 24.1245 16.7957C24.1245 17.3634 23.6579 17.8299 23.0902 17.8299H7.44211C7.23977 17.8299 7.05428 17.7681 6.8969 17.6726C6.62711 17.5826 6.39104 17.3803 6.273 17.0936L0.0789512 2.32796C-0.140257 1.79399 0.107055 1.18695 0.629783 0.967745C1.16375 0.748536 1.77079 1.00147 1.99 1.5242L7.95922 15.7503ZM16.441 4.3458H4.77795L5.77282 6.61658H27.1035L28.104 4.3458H16.441ZM11.3598 21.1686C11.3598 22.2955 10.4463 23.209 9.31942 23.209C8.19258 23.209 7.27909 22.2955 7.27909 21.1686C7.27909 20.0418 8.19258 19.1283 9.31942 19.1283C10.4463 19.1283 11.3598 20.0418 11.3598 21.1686ZM22.9834 21.1686C22.9834 22.2955 22.0699 23.209 20.9431 23.209C19.8162 23.209 18.9027 22.2955 18.9027 21.1686C18.9027 20.0418 19.8162 19.1283 20.9431 19.1283C22.0699 19.1283 22.9834 20.0418 22.9834 21.1686ZM16.4409 14.2664H9.13398L8.13911 11.99H24.7428L23.7423 14.2664H16.4409ZM7.45332 10.4387H25.4228L26.4233 8.17354H6.45845L7.45332 10.4387Z" fill="white"/>
</svg>
