<svg width="48" height="48" viewBox="0 0 48 48" fill="none" xmlns="http://www.w3.org/2000/svg">
<circle cx="23.7726" cy="23.7726" r="21.7726" fill="#11B5FC" stroke="#11B5FC" stroke-width="4"/>
<path fill-rule="evenodd" clip-rule="evenodd" d="M17.9592 27.7503H33.0902C33.6579 27.7503 34.1245 28.2168 34.1245 28.7957C34.1245 29.3634 33.6579 29.8299 33.0902 29.8299H17.4421C17.2398 29.8299 17.0543 29.7681 16.8969 29.6726C16.6271 29.5826 16.391 29.3803 16.273 29.0936L10.079 14.328C9.85974 13.794 10.1071 13.187 10.6298 12.9677C11.1638 12.7485 11.7708 13.0015 11.99 13.5242L17.9592 27.7503ZM26.441 16.3458H14.7779L15.7728 18.6166H37.1035L38.104 16.3458H26.441ZM21.3598 33.1686C21.3598 34.2955 20.4463 35.209 19.3194 35.209C18.1926 35.209 17.2791 34.2955 17.2791 33.1686C17.2791 32.0418 18.1926 31.1283 19.3194 31.1283C20.4463 31.1283 21.3598 32.0418 21.3598 33.1686ZM32.9834 33.1686C32.9834 34.2955 32.0699 35.209 30.9431 35.209C29.8162 35.209 28.9027 34.2955 28.9027 33.1686C28.9027 32.0418 29.8162 31.1283 30.9431 31.1283C32.0699 31.1283 32.9834 32.0418 32.9834 33.1686ZM26.4409 26.2664H19.134L18.1391 23.99H34.7428L33.7423 26.2664H26.4409ZM17.4533 22.4387H35.4228L36.4233 20.1735H16.4585L17.4533 22.4387Z" fill="white"/>
</svg>
