<svg width="21" height="19" viewBox="0 0 21 19" fill="none" xmlns="http://www.w3.org/2000/svg">
<path fill-rule="evenodd" clip-rule="evenodd" d="M4.96235e-05 4.01971C-0.0108743 1.8029 1.78316 0 4 0H6.58191C8.24929 0 9.74177 1.03429 10.3272 2.59551L10.5007 3.05814L17.1973 3.05814C18.8541 3.05814 20.1973 4.40129 20.1973 6.05814V15.934C20.1973 17.5908 18.8541 18.934 17.1973 18.934H3.20545C1.9228 18.934 0.828156 18.129 0.399132 16.9967L0.0640056 16.9984L4.96235e-05 4.01971ZM6.58191 2C7.32701 2 8.00226 2.41308 8.34633 3.05814L3.20546 3.05814C2.83211 3.05814 2.47469 3.12634 2.14498 3.25096C2.44136 2.51775 3.15997 2 4 2H6.58191ZM18.1973 7.99672V6.05814C18.1973 5.50585 17.7495 5.05814 17.1973 5.05814L3.20546 5.05814C2.65317 5.05814 2.20546 5.50585 2.20546 6.05814V7.99672H18.1973ZM18.1973 9.99672H2.20546L2.20546 15.934C2.20546 16.4863 2.65317 16.934 3.20545 16.934H17.1973C17.7495 16.934 18.1973 16.4863 18.1973 15.934V9.99672Z" fill="white"/>
</svg>
