<svg width="48" height="48" viewBox="0 0 48 48" fill="none" xmlns="http://www.w3.org/2000/svg">
<circle cx="23.7726" cy="23.7726" r="21.7726" fill="#11B5FC" stroke="#11B5FC" stroke-width="4"/>
<path fill-rule="evenodd" clip-rule="evenodd" d="M11 16.0197C10.9891 13.8029 12.7832 12 15 12H19.5048C21.1722 12 22.6646 13.0343 23.2501 14.5955L23.6169 15.5737L33.0103 15.5737C34.6671 15.5737 36.0103 16.9169 36.0103 18.5737V32.4267C36.0103 34.0835 34.6671 35.4267 33.0103 35.4267L14.0103 35.4267C12.3534 35.4267 11.0103 34.0835 11.0103 32.4267L11.0103 18.5737C11.0103 18.538 11.0109 18.5025 11.0121 18.4671L11 16.0197ZM21.3774 15.2978L21.4809 15.5737L14.0103 15.5737C13.6619 15.5737 13.3275 15.6331 13.0164 15.7423C13.1428 14.7599 13.9823 14 15 14H19.5048C20.3385 14 21.0847 14.5171 21.3774 15.2978ZM13.0394 24L13.0828 32.8012C13.231 33.1679 13.5904 33.4267 14.0103 33.4267L33.0103 33.4267C33.5625 33.4267 34.0103 32.979 34.0103 32.4267V24H13.0394ZM13.0295 22H34.0103V18.5737C34.0103 18.0214 33.5625 17.5737 33.0103 17.5737L14.0103 17.5737C13.4798 17.5737 13.0459 17.9867 13.0123 18.5086L13.0295 22Z" fill="white"/>
</svg>
