<svg width="20" height="12" viewBox="0 0 20 12" fill="none" xmlns="http://www.w3.org/2000/svg">
<path d="M19.1527 6.57143C19.1527 7.64183 18.2749 8.74458 16.5504 9.60952C14.8554 10.4597 12.4788 11 9.82634 11C7.17388 11 4.79726 10.4597 3.10224 9.60952C1.37775 8.74458 0.5 7.64183 0.5 6.57143C0.5 6.02124 0.725112 5.36629 1.18785 4.67423C1.6476 3.98663 2.32355 3.29098 3.17354 2.66833C4.8744 1.42239 7.22904 0.5 9.82634 0.5C12.4236 0.5 14.7783 1.42239 16.4791 2.66833C17.3291 3.29098 18.0051 3.98663 18.4648 4.67423C18.9276 5.36629 19.1527 6.02124 19.1527 6.57143Z" stroke="#08B0F9"/>
<ellipse cx="9.8263" cy="5.74983" rx="3.27545" ry="3.28571" fill="#08B0F9"/>
</svg>
