<svg width="24" height="23" viewBox="0 0 24 23" fill="none" xmlns="http://www.w3.org/2000/svg">
<g clip-path="url(#clip0)">
<path d="M8.5336 20.6309C9.45292 20.6309 10.1982 19.8833 10.1982 18.9611C10.1982 18.0389 9.45292 17.2913 8.5336 17.2913C7.61428 17.2913 6.86902 18.0389 6.86902 18.9611C6.86902 19.8833 7.61428 20.6309 8.5336 20.6309Z" fill="#11B5FC"/>
<path d="M18.0166 20.6309C18.936 20.6309 19.6812 19.8833 19.6812 18.9611C19.6812 18.0389 18.936 17.2913 18.0166 17.2913C17.0973 17.2913 16.3521 18.0389 16.3521 18.9611C16.3521 19.8833 17.0973 20.6309 18.0166 20.6309Z" fill="#11B5FC"/>
<path d="M14.3436 5.19336H4.82846L5.64012 7.05176H23.0426L23.8588 5.19336H14.3436Z" fill="#11B5FC"/>
<path d="M8.3823 13.3122H14.3436H20.3003L21.1166 11.4492H7.57065L8.3823 13.3122Z" fill="#11B5FC"/>
<path d="M7.01115 10.1797H21.6714L22.4876 8.32593H6.19949L7.01115 10.1797Z" fill="#11B5FC"/>
<path d="M19.7684 14.5267H7.42388L2.55395 2.88413C2.37511 2.45633 1.87986 2.24933 1.44423 2.42873C1.01776 2.60813 0.815995 3.10493 0.994835 3.54193L6.04819 15.6261C6.14449 15.8607 6.33709 16.0263 6.5572 16.0999C6.6856 16.1781 6.83692 16.2287 7.002 16.2287H19.7684C20.2315 16.2287 20.6121 15.8469 20.6121 15.3823C20.6121 14.9085 20.2315 14.5267 19.7684 14.5267Z" fill="#11B5FC"/>
</g>
<defs>
<clipPath id="clip0">
<rect width="22.9281" height="23" fill="white" transform="translate(0.930664)"/>
</clipPath>
</defs>
</svg>
