<svg width="21" height="21" viewBox="0 0 21 21" fill="none" xmlns="http://www.w3.org/2000/svg">
<circle cx="10.5" cy="10.5" r="8.5" fill="#11B5FC" stroke="#11B5FC" stroke-width="4"/>
<path d="M12.1203 4.06001H12.0074V4H11.0243V4.06001H7.95491C7.46805 4.06001 7.07056 4.46569 7.07056 4.96259V5.14743H7V5.71154H7.07056V6.39568H7.02117V6.83737H7.07056V7.44469H7.02117V7.88638H7.07056V15.0998C7.07056 15.5967 7.46805 16 7.95491 16H12.118C12.6048 16 13 15.5943 13 15.0998V4.96259C13.0047 4.46569 12.6072 4.06001 12.1203 4.06001ZM9.56133 5.04181H10.6056V5.26265H9.56133V5.04181ZM9.08623 5.03701C9.14738 5.03701 9.19912 5.08742 9.19912 5.15223C9.19912 5.21464 9.14973 5.26745 9.08623 5.26745C9.02507 5.26745 8.97333 5.21704 8.97333 5.15223C8.97333 5.08982 9.02507 5.03701 9.08623 5.03701ZM10.0482 15.4263C9.7589 15.4263 9.52605 15.1886 9.52605 14.8934C9.52605 14.5981 9.7589 14.3605 10.0482 14.3605C10.3375 14.3605 10.5703 14.5981 10.5703 14.8934C10.5703 15.1886 10.3375 15.4263 10.0482 15.4263ZM12.6001 13.866H7.49627V6.11242H12.6025V13.866H12.6001Z" fill="white"/>
</svg>
