<svg width="22" height="23" viewBox="0 0 22 23" fill="none" xmlns="http://www.w3.org/2000/svg">
<path fill-rule="evenodd" clip-rule="evenodd" d="M14.8615 9.27155C14.8615 12.7881 12.0107 15.6388 8.4942 15.6388C4.97767 15.6388 2.12695 12.7881 2.12695 9.27155C2.12695 5.75501 4.97767 2.9043 8.4942 2.9043C12.0107 2.9043 14.8615 5.75501 14.8615 9.27155ZM13.5444 15.9434C12.1409 17.0075 10.3913 17.6388 8.4942 17.6388C3.8731 17.6388 0.126953 13.8927 0.126953 9.27155C0.126953 4.65044 3.8731 0.904297 8.4942 0.904297C13.1153 0.904297 16.8615 4.65044 16.8615 9.27155C16.8615 11.2737 16.1582 13.1116 14.9853 14.5518L21.6578 20.7201C22.0633 21.095 22.0882 21.7277 21.7133 22.1333C21.3384 22.5388 20.7057 22.5636 20.3001 22.1887L13.5444 15.9434Z" fill="white"/>
</svg>
