<svg width="48" height="48" viewBox="0 0 48 48" fill="none" xmlns="http://www.w3.org/2000/svg">
<circle cx="23.7726" cy="23.7726" r="21.7726" fill="#11B5FC" stroke="#11B5FC" stroke-width="4"/>
<path fill-rule="evenodd" clip-rule="evenodd" d="M28.8615 23.2715C28.8615 26.7881 26.0107 29.6388 22.4942 29.6388C18.9777 29.6388 16.127 26.7881 16.127 23.2715C16.127 19.755 18.9777 16.9043 22.4942 16.9043C26.0107 16.9043 28.8615 19.755 28.8615 23.2715ZM27.5444 29.9434C26.1409 31.0075 24.3913 31.6388 22.4942 31.6388C17.8731 31.6388 14.127 27.8927 14.127 23.2715C14.127 18.6504 17.8731 14.9043 22.4942 14.9043C27.1153 14.9043 30.8615 18.6504 30.8615 23.2715C30.8615 25.2737 30.1582 27.1116 28.9853 28.5518L35.6578 34.7201C36.0633 35.095 36.0882 35.7277 35.7133 36.1333C35.3384 36.5388 34.7057 36.5636 34.3001 36.1887L27.5444 29.9434Z" fill="white"/>
</svg>
